<svg
		xmlns="http://www.w3.org/2000/svg"
		viewBox="100 100 600 600"
		width="1em"
		height="1em"
		fill="white"
		style="vertical-align: -0.125em;"
>
	<path d="M 259 101.876 C 249.990 104.840, 240.663 113.159, 236.679 121.783 C 234.550 126.392, 234.506 127.322, 234.781 162.420 C 235.017 192.492, 234.797 199.642, 233.432 206.335 C 230.330 221.543, 221.543 230.330, 206.335 233.432 C 199.642 234.797, 192.492 235.017, 162.420 234.781 C 121.275 234.459, 121.883 234.352, 111.933 243.659 C 104.031 251.051, 101.531 256.651, 101.514 267 C 101.502 274.022, 101.927 276.369, 103.957 280.500 C 107.098 286.891, 114.112 293.904, 120.500 297.040 L 125.500 299.495 165 299.197 C 204.446 298.901, 204.521 298.896, 219.999 295.841 C 228.758 294.112, 237.454 291.778, 239.999 290.473 C 242.474 289.203, 250.341 284.181, 257.481 279.313 L 270.462 270.462 279.313 257.481 C 284.181 250.341, 289.203 242.474, 290.473 239.999 C 291.778 237.454, 294.112 228.758, 295.841 219.999 C 298.896 204.521, 298.901 204.446, 299.197 165 L 299.495 125.500 297.040 120.500 C 293.908 114.121, 286.873 107.079, 280.605 104.048 C 275.356 101.510, 263.679 100.336, 259 101.876
  M 523.763 102.454 C 517.821 104.732, 511.182 109.779, 507.481 114.833 C 501.089 123.561, 501 124.272, 501 166.504 L 501 204.652 504.110 220.076 C 505.821 228.559, 508.137 237.300, 509.257 239.500 C 511.556 244.017, 523.806 262.576, 528.200 268.202 C 531.011 271.800, 553.445 287.667, 561.500 291.754 C 563.700 292.870, 572.530 295.197, 581.123 296.925 L 596.746 300.067 636.123 299.784 L 675.500 299.500 680.500 297.043 C 686.890 293.903, 693.903 286.890, 697.043 280.500 C 699.077 276.362, 699.496 274.035, 699.476 267 C 699.447 256.641, 696.943 251.026, 689.067 243.659 C 679.216 234.445, 679.986 234.585, 635.500 233.894 C 609.025 233.483, 594.899 232.879, 591.516 232.014 C 580.950 229.310, 571.690 220.050, 568.986 209.484 C 568.121 206.101, 567.517 191.975, 567.106 165.500 C 566.527 128.220, 566.404 126.292, 564.321 121.783 C 561.393 115.446, 553.666 107.376, 547.520 104.236 C 541.347 101.084, 529.630 100.204, 523.763 102.454
  M 124.005 502.668 C 109.754 507.654, 101.137 520.759, 102.221 535.798 C 103.065 547.503, 110.667 558.182, 121.824 563.339 C 126.281 565.399, 128.326 565.528, 165.500 566.106 C 191.863 566.515, 206.105 567.122, 209.452 567.980 C 220.364 570.775, 230.225 580.636, 233.020 591.548 C 233.878 594.895, 234.485 609.137, 234.894 635.500 C 235.472 672.674, 235.601 674.719, 237.661 679.176 C 240.577 685.485, 247.333 692.607, 253.460 695.830 C 257.836 698.133, 259.685 698.480, 267.500 698.471 C 275.020 698.462, 277.322 698.056, 281.500 696.004 C 287.862 692.879, 293.860 686.888, 297.024 680.500 L 299.500 675.500 299.793 635.656 L 300.087 595.812 297.048 580.757 C 295.377 572.476, 292.935 563.406, 291.620 560.601 C 290.306 557.795, 285.232 549.659, 280.346 542.519 L 271.462 529.538 258.481 520.654 C 251.341 515.768, 243.211 510.697, 240.413 509.386 C 237.616 508.075, 228.658 505.652, 220.507 504.001 L 205.688 501 167.094 501.048 C 134.657 501.088, 127.783 501.346, 124.005 502.668
  M 579.625 504.062 C 562.918 507.561, 559.260 509.196, 542.519 520.654 L 529.538 529.538 520.654 542.519 C 515.768 549.659, 510.694 557.795, 509.380 560.601 C 508.065 563.406, 505.623 572.476, 503.952 580.757 L 500.913 595.812 501.207 635.656 L 501.500 675.500 503.976 680.500 C 507.140 686.888, 513.138 692.879, 519.500 696.004 C 523.678 698.056, 525.980 698.462, 533.500 698.471 C 541.315 698.480, 543.164 698.133, 547.540 695.830 C 553.667 692.607, 560.423 685.485, 563.339 679.176 C 565.399 674.719, 565.528 672.674, 566.106 635.500 C 566.515 609.137, 567.122 594.895, 567.980 591.548 C 570.775 580.636, 580.636 570.775, 591.548 567.980 C 594.895 567.122, 609.137 566.515, 635.500 566.106 C 672.674 565.528, 674.719 565.399, 679.176 563.339 C 685.485 560.423, 692.607 553.667, 695.830 547.540 C 698.133 543.164, 698.480 541.315, 698.471 533.500 C 698.462 525.980, 698.056 523.678, 696.004 519.500 C 692.879 513.138, 686.888 507.140, 680.500 503.976 L 675.500 501.500 634.500 501.329 L 593.500 501.157 579.625 504.062"/>
</svg>
