<svg xmlns="http://www.w3.org/2000/svg" width="50" height="100" viewBox="0 0 26 26" style="fill:#FA5252;">
    <path d="M 13 0 C 10.789063 0 8.878906 0.917969 7.6875 2.40625 C 6.496094 3.894531 6 5.824219 6 7.90625 L 6 9 L 9 9 L 9 7.90625 C 9 6.328125 9.390625 5.085938 10.03125 4.28125 C 10.671875 3.476563 11.542969 3 13 3 C 14.460938 3 15.328125 3.449219 15.96875 4.25 C 16.609375 5.050781 17 6.308594 17 7.90625 L 17 9 L 20 9 L 20 7.90625 C 20 5.8125 19.472656 3.863281 18.28125 2.375 C 17.089844 0.886719 15.207031 0 13 0 Z M 6 10 C 4.34375 10 3 11.34375 3 13 L 3 23 C 3 24.65625 4.34375 26 6 26 L 20 26 C 21.65625 26 23 24.65625 23 23 L 23 13 C 23 11.34375 21.65625 10 20 10 Z M 13 15 C 14.105469 15 15 15.894531 15 17 C 15 17.738281 14.597656 18.371094 14 18.71875 L 14 21 C 14 21.550781 13.550781 22 13 22 C 12.449219 22 12 21.550781 12 21 L 12 18.71875 C 11.402344 18.371094 11 17.738281 11 17 C 11 15.894531 11.894531 15 13 15 Z"></path>
</svg>